# xmcd
# 
# Track frame offsets:
#     150
#     21362
#     42867
#     63527
#     82710
#     101175
#     125475
#     148290
#     165515
#     183332
#     200252
#     219222
# 
# Disc length: 2940
# 
# Revision: 8
# Processed by: cddbd v1.5.2PL0 Copyright (c) Steve Scherf et al.
# Submitted via: fre:ac v1.0.31
# 
DISCID=a40b7a0c
DTITLE=Paulina Rubio - Paulina
DYEAR=2000
DGENRE=Latin
TTITLE0=Lo Haré Por Tí
TTITLE1=El Último Adiós
TTITLE2=Tal Vez, Quizá
TTITLE3=Y Yo Sigo Aquí
TTITLE4=Sin Aire
TTITLE5=Tan Sola
TTITLE6=Sexi Dance
TTITLE7=Cancún Y Yo
TTITLE8=Mírame A Los Ojos
TTITLE9=Yo No Soy Esa Mujer
TTITLE10=Vive El Verano
TTITLE11=Baby Paulina
EXTD=YEAR: 2000
EXTT0=
EXTT1=
EXTT2=
EXTT3=
EXTT4=
EXTT5=
EXTT6=
EXTT7=
EXTT8=
EXTT9=
EXTT10=
EXTT11=
PLAYORDER=
